<svg width="512" height="512" viewBox="0 0 512 512" xmlns="http://www.w3.org/2000/svg" preserveAspectRatio="xMidYMid meet"><rect x="0" y="0" width="512" height="512" fill="#F97316"></rect><svg x="101" y="43" width="314" height="298" xmlns="http://www.w3.org/2000/svg" preserveAspectRatio="none"><svg version="1.1" xmlns="http://www.w3.org/2000/svg" style="display: block;" width="314" height="298" viewBox="-0.19 0.00 2048.38 1944.00" preserveAspectRatio="none"><g id="svg-group-175f5788-44c6-4d02-a3ca-ce765109620f">
<path transform="translate(0,0)" fill="rgba(254, 254, 254, 1)" d="M 1447.36 0 L 1455.45 0 C 1460.73 7.68785 1482.11 8.89716 1491.87 12.9102 C 1526.56 27.172 1556.69 47.1487 1588.86 65.7023 C 1620.52 83.9629 1651.65 103.192 1683.63 120.871 C 1691.44 124.961 1699.41 132.221 1707.18 136.683 C 1734.15 152.219 1759 170.811 1784.68 188.3 C 1819.14 211.76 1860.18 232.581 1886.42 265.449 C 1899.23 281.501 1898.12 313.207 1901.03 333.535 C 1905.83 366.924 1912.1 400.086 1919.81 432.926 C 1930.42 478.854 1945.27 526.975 1957.7 572.535 C 1979.23 651.45 2000.35 729.139 2016.55 809.422 C 2025.48 852.008 2032.51 894.973 2037.59 938.188 C 2039.08 950.222 2040.23 962.296 2041.03 974.396 C 2041.59 984.2 2039.52 1001 2048 1006.38 L 2048 1165.85 C 2042.56 1169.72 2042.4 1172.8 2041.72 1179.34 C 2040.49 1191.21 2040.02 1203.14 2038.7 1215.02 C 2035.29 1245.22 2030.85 1275.3 2025.39 1305.21 C 2016.77 1352.26 2004.69 1399.09 1997.2 1446.25 C 1992.94 1473.03 1999.31 1505.86 1991.51 1532.86 C 1987.12 1547.75 1978.18 1560.89 1965.95 1570.44 C 1942.55 1589.1 1788.91 1627.19 1752.03 1636.31 C 1565.11 1682.54 1362.6 1715.23 1170.12 1692.12 C 1124.42 1686.61 1079.28 1677.17 1035.2 1663.91 C 960.428 1642.12 891.974 1614.72 830.966 1565.9 C 822.269 1558.94 812.553 1552.54 804.101 1545.35 C 799.163 1550.82 794.608 1551.66 791.276 1555.24 C 853.943 1687.22 964.567 1769 1101.46 1813.79 C 1144.6 1827.9 1191.28 1839.59 1235.83 1848.48 C 1246.61 1850.63 1255.9 1849.92 1266.72 1853.76 C 1249.99 1861.49 1233.89 1870.39 1217.13 1878.02 C 1210.94 1880.84 1203.75 1882.71 1197.39 1885.01 C 1126.65 1910.58 1055.07 1928.63 980.019 1935.73 C 972.691 1936.42 964.195 1937.45 957.295 1939.88 C 955.701 1940.46 954.271 1942.73 953.415 1944 L 771.532 1944 C 770.034 1941.92 767.692 1938.79 765.012 1938.55 C 711.714 1933.74 658.064 1923.34 607.222 1906.51 C 584.894 1899.11 564.806 1891.84 548.604 1874.24 C 529.115 1853.07 513.79 1830.42 499.092 1805.82 C 492.076 1794.07 487.763 1781.27 482.51 1768.73 C 437.317 1664.18 423.51 1545.91 423.947 1432.78 C 424.055 1405.04 422.827 1376.51 428.193 1349.12 C 431.36 1333.58 444.609 1316.69 458.248 1308.74 C 486.928 1291.14 519.589 1294.25 550.201 1304.97 C 571.12 1313.29 587.344 1329.82 606.153 1341.63 C 618.42 1349.12 629.997 1357.45 641.994 1365.35 C 714.127 1412.88 793.604 1450.75 880.128 1461.53 C 910.627 1465.33 943.987 1469.45 974.671 1467.99 C 1066.92 1463.6 1160.06 1443.34 1243.8 1403.9 C 1251.89 1400.09 1262.04 1397.82 1269.8 1393.62 C 1289.21 1383.12 1308.39 1372.03 1327.24 1360.54 C 1327.2 1359.94 1326.7 1358.37 1326.51 1357.71 C 1323.85 1354.9 1323.74 1354.57 1320.19 1353.39 C 1258.74 1372.56 1184.95 1376.52 1120.87 1376.26 C 1019.7 1375.83 890.786 1355.71 820.39 1276.02 C 799.215 1252.05 786.35 1212.13 791.419 1180.97 C 797.239 1124.17 833.739 1079.94 876.963 1045.43 C 966.563 976.827 1083.01 960.057 1192.85 972.827 C 1261.5 980.808 1326.54 1001.77 1389.15 1031.22 C 1405.18 1038.76 1422.42 1050.91 1438.09 1059.75 C 1455.2 1070.36 1479.07 1083.83 1492.16 1098.84 C 1497.38 1104.82 1494.38 1133.72 1502.18 1147.63 C 1511.23 1163.76 1518.81 1175.81 1531.44 1189.8 C 1562.14 1223.81 1604.1 1247.84 1645.9 1265.51 C 1656.87 1269.93 1703.13 1283.95 1713.21 1284.9 C 1716.33 1283.5 1716.46 1283.64 1718.78 1280.95 C 1716.95 1276.86 1683.89 1252.13 1675.53 1243.02 C 1607.84 1170.46 1581.02 1081.81 1595.15 983.988 C 1602.22 935.071 1615.55 907.067 1632.58 861.304 C 1661.6 783.317 1688.69 700.366 1696.05 617.184 C 1698.16 593.307 1695.13 565.543 1695.92 541.106 C 1692.92 535.563 1689.08 513.253 1690.38 506.545 C 1691.06 503.059 1693.22 502.453 1696.01 500.603 C 1703.2 492.167 1713.84 482.937 1721.94 475.04 C 1735 462.311 1771.55 419.995 1773.66 403 C 1772.31 400.051 1772.41 400.26 1769.86 398.224 C 1766.5 399.425 1758.83 405.82 1755.16 408.273 C 1747.73 413.026 1739.12 415.887 1730.99 419.037 C 1660.43 446.368 1572.98 441.228 1526.71 373.662 C 1520.75 364.957 1512.7 357.518 1506.88 348.067 C 1500.41 337.571 1494.19 326.956 1487.54 316.706 C 1479.78 325.393 1472.06 332.865 1463.45 340.566 C 1453.8 349.195 1430.68 364.504 1424.54 374.805 L 1426.24 376.408 C 1450.27 382.896 1501.73 360.894 1519.28 382.719 C 1561.63 435.407 1526.11 459.274 1472.79 468.261 C 1448.83 472.299 1425.47 479.963 1401.52 479.034 C 1377.15 462.852 1371.51 442.264 1354.63 426.648 C 1339.55 412.705 1319.46 412.213 1303.03 388.338 C 1292.47 376.449 1293.55 351.542 1282.71 341.48 C 1260.31 320.675 1228.26 318.68 1228.06 281.019 C 1227.94 258.726 1240.78 247.982 1252.37 230.307 C 1270.92 202.011 1292.81 176.676 1313.05 149.67 L 1370.69 73.3976 C 1384.44 55.043 1395.76 38.7562 1411.13 21.5529 C 1422.44 8.8851 1441.47 6.90444 1447.36 0 z"/>
<path transform="translate(0,0)" fill="rgba(244, 68, 50, 1)" d="M 781.94 1527.2 C 788.874 1532.16 797.413 1539.74 804.101 1545.35 C 799.163 1550.82 794.608 1551.66 791.276 1555.24 C 788.39 1545.82 785.277 1536.47 781.94 1527.2 z"/>
<path transform="translate(0,0)" fill="rgba(241, 232, 235, 1)" d="M 1696.01 500.603 C 1695.99 511.813 1696.64 530.557 1695.92 541.106 C 1692.92 535.563 1689.08 513.253 1690.38 506.545 C 1691.06 503.059 1693.22 502.453 1696.01 500.603 z"/>
<path transform="translate(0,0)" fill="rgba(244, 68, 50, 1)" d="M 1320.19 1353.39 C 1331.87 1350.86 1338.83 1348.71 1350.15 1345.2 C 1345.94 1348.81 1332.26 1359.29 1327.24 1360.54 C 1327.2 1359.94 1326.7 1358.37 1326.51 1357.71 C 1323.85 1354.9 1323.74 1354.57 1320.19 1353.39 z"/>
<path transform="translate(0,0)" fill="rgba(254, 254, 254, 1)" d="M 0 261.119 C 5.21007 258.595 8.85457 258.443 14.5472 258.377 C 51.4177 257.953 88.4866 258.152 125.363 258.166 L 331.472 258.26 L 473.144 258.195 C 499.024 258.177 530.671 256.748 555.939 259.013 C 701.98 272.098 847.284 360.233 912.461 494.578 C 961.316 595.621 967.582 712.042 929.857 817.745 C 898.779 906.433 837.579 981.412 756.913 1029.63 C 740.01 1039.93 713.48 1053.57 694.375 1061.76 C 650.529 1080.54 595.415 1090.92 547.866 1095.24 C 524.258 1097.38 500.805 1094.86 477.218 1095.81 C 464.012 1095.85 437.056 1096.62 425.406 1095.07 C 423.591 1070.15 423.943 1041.79 424.479 1016.62 C 425.688 959.919 422.564 901.48 424.46 844.975 C 497.098 844.982 585.36 851.498 640.826 795.851 C 664.362 771.856 684.03 743.744 690.052 710.221 C 706.519 618.548 650.511 540.434 560.701 520.934 C 534.011 515.139 485.161 517.988 456.399 518.004 L 276.916 518.04 C 271.911 518.053 259.948 517.891 255.992 520.747 C 254.356 521.928 254.359 534.551 254.356 537.28 C 254.248 629.488 254.339 721.761 254.34 813.97 L 254.33 1365.46 L 254.312 1585.85 C 254.306 1623.21 255.495 1668.03 253.896 1704.63 C 231.922 1688.97 209.057 1658.9 192.151 1637.98 C 100.368 1526.37 39.8275 1392.41 16.7048 1249.76 C 14.759 1238.08 13.3772 1226.53 11.6415 1214.84 C 8.58207 1194.23 7.50419 1173.72 5.4237 1153.04 C 5.08574 1149.68 2.75892 1147.75 0 1146.18 L 0 261.119 z"/>
</g></svg></svg></svg>